<svg width="14" height="14" viewBox="0 0 14 14" fill="none" xmlns="http://www.w3.org/2000/svg">
<path d="M13.174 2.198C13.37 2.198 13.5338 2.2638 13.664 2.394C13.7942 2.5242 13.86 2.688 13.86 2.884C13.86 3.0772 13.7942 3.2396 13.6612 3.3712L5.42921 11.6032C5.29761 11.7348 5.13381 11.802 4.94201 11.802C4.75021 11.802 4.58641 11.7362 4.45481 11.6032L0.338815 7.4872C0.205815 7.3556 0.140015 7.1932 0.140015 7C0.140015 6.804 0.205815 6.6402 0.336015 6.51C0.466215 6.3798 0.630015 6.314 0.826015 6.314C1.01921 6.314 1.18161 6.3798 1.31321 6.5128L4.94201 10.1458L12.6868 2.3968C12.8184 2.2638 12.9808 2.198 13.174 2.198Z" fill="white"/>
</svg>
