<svg width="14" height="14" viewBox="0 0 14 14" fill="none" xmlns="http://www.w3.org/2000/svg">
<g clip-path="url(#clip0_1_6)">
<path d="M8.8648 7L13.4722 2.3926C13.9874 1.8774 13.9874 1.0416 13.4722 0.526399C12.957 0.0111994 12.1212 0.0111994 11.6074 0.526399L7 5.1338L2.3912 0.526399C1.876 0.0111994 1.0402 0.0111994 0.526399 0.526399C0.0111994 1.0416 0.0111994 1.8774 0.526399 2.3926L5.1352 7L0.526399 11.6074C0.0111994 12.1226 0.0111994 12.9584 0.526399 13.4722C0.783999 13.7312 1.1214 13.86 1.4588 13.86C1.7962 13.86 2.1336 13.7312 2.3912 13.4736L7 8.8662L11.6074 13.4736C11.865 13.7312 12.2024 13.86 12.5398 13.86C12.8772 13.86 13.2146 13.7312 13.4722 13.4736C13.9874 12.9584 13.9874 12.1226 13.4722 11.6088L8.8648 7Z" fill="white"/>
</g>
<defs>
<clipPath id="clip0_1_6">
<rect width="14" height="14" fill="white"/>
</clipPath>
</defs>
</svg>
