<svg width="119" height="134" viewBox="0 0 119 134" fill="none" xmlns="http://www.w3.org/2000/svg">
<path d="M28 104C28 106.209 26.2091 107.5 24 107.5C21.7909 107.5 20 106.209 20 104C20 101.791 21.7909 100 24 100C26.2091 100 28 101.791 28 104Z" fill="#D9D9D9"/>
<path d="M117.5 5.50003C102.5 17.5 110.209 25 108 25C105.791 25 0 135.709 0 133.5C0 131.291 84.5 6.00003 106.5 0.500027C110.5 -0.499973 120.5 3.10003 117.5 5.50003Z" fill="#D9D9D9"/>
<path d="M117.5 5.50003C102.5 17.5 110.209 25 108 25C105.791 25 106.5 15.2091 106.5 13C106.5 10.7909 107 7.00001 111 4.00001C114.298 1.52615 120.5 3.10003 117.5 5.50003Z" fill="#D9D9D9"/>
</svg>
