<svg width="99" height="25" viewBox="0 0 99 25" fill="none" xmlns="http://www.w3.org/2000/svg">
<path d="M8 4C8 6.20914 6.20914 7.50003 4 7.50003C1.79086 7.50003 0 6.20914 0 4C0 1.79086 1.79086 0 4 0C6.20914 0 8 1.79086 8 4Z" fill="#D9D9D9"/>
<path d="M97.5 5.50003C82.5 17.5 90.2091 25 88 25C85.7909 25 3.5 5.20915 3.5 3.00001C3.5 0.790871 64.5 6.00003 86.5 0.500027C90.5 -0.499973 100.5 3.10003 97.5 5.50003Z" fill="#D9D9D9"/>
<path d="M97.5 5.50003C82.5 17.5 90.2091 25 88 25C85.7909 25 86.5 15.2091 86.5 13C86.5 10.7909 87 7.00001 91 4.00001C94.2985 1.52615 100.5 3.10003 97.5 5.50003Z" fill="#D9D9D9"/>
</svg>
