<svg width="105" height="153" viewBox="0 0 105 153" fill="none" xmlns="http://www.w3.org/2000/svg">
<path d="M14 104C14 106.209 12.2091 107.5 10 107.5C7.79086 107.5 6 106.209 6 104C6 101.791 7.79086 100 10 100C12.2091 100 14 101.791 14 104Z" fill="#D9D9D9"/>
<path d="M103.5 5.50003C88.5 17.5 96.2091 25 94 25C91.7909 25 0.5 154.709 0.5 152.5C0.5 150.291 70.5 6.00003 92.5 0.500027C96.5 -0.499973 106.5 3.10003 103.5 5.50003Z" fill="#D9D9D9"/>
<path d="M103.5 5.50003C88.5 17.5 96.2091 25 94 25C91.7909 25 92.5 15.2091 92.5 13C92.5 10.7909 93 7.00001 97 4.00001C100.298 1.52615 106.5 3.10003 103.5 5.50003Z" fill="#D9D9D9"/>
</svg>
