<svg width="99" height="75" viewBox="0 0 99 75" fill="none" xmlns="http://www.w3.org/2000/svg">
<path d="M8 71C8 73.2091 6.20914 74.5 4 74.5C1.79086 74.5 0 73.2091 0 71C0 68.7909 1.79086 67 4 67C6.20914 67 8 68.7909 8 71Z" fill="#D9D9D9"/>
<path d="M97.5 5.50003C82.5 17.5 90.2091 25 88 25C85.7909 25 3.5 73.2091 3.5 71C3.5 68.7909 64.5 6.00003 86.5 0.500027C90.5 -0.499973 100.5 3.10003 97.5 5.50003Z" fill="#D9D9D9"/>
<path d="M97.5 5.50003C82.5 17.5 90.2091 25 88 25C85.7909 25 86.5 15.2091 86.5 13C86.5 10.7909 87 7.00001 91 4.00001C94.2985 1.52615 100.5 3.10003 97.5 5.50003Z" fill="#D9D9D9"/>
</svg>
