<svg width="99" height="42" viewBox="0 0 99 42" fill="none" xmlns="http://www.w3.org/2000/svg">
<path d="M8 38C8 40.2091 6.20914 41.5 4 41.5C1.79086 41.5 0 40.2091 0 38C0 35.7909 1.79086 34 4 34C6.20914 34 8 35.7909 8 38Z" fill="#D9D9D9"/>
<path d="M97.5 5.50003C82.5 17.5 90.2091 25 88 25C85.7909 25 4 40.2092 4 38C4 35.7909 64.5 6.00003 86.5 0.500027C90.5 -0.499973 100.5 3.10003 97.5 5.50003Z" fill="#D9D9D9"/>
<path d="M97.5 5.50003C82.5 17.5 90.2091 25 88 25C85.7909 25 86.5 15.2091 86.5 13C86.5 10.7909 87 7.00001 91 4.00001C94.2985 1.52615 100.5 3.10003 97.5 5.50003Z" fill="#D9D9D9"/>
</svg>
