<svg width="270" height="189" viewBox="0 0 270 189" fill="none" xmlns="http://www.w3.org/2000/svg">
<path d="M15.3999 20.7001C15.3999 24.9527 11.9525 28.4001 7.69994 28.4001C3.44735 28.4001 -6.10352e-05 24.9527 -6.10352e-05 20.7001C-6.10352e-05 16.4475 3.44735 13.0001 7.69994 13.0001C11.9525 13.0001 15.3999 16.4475 15.3999 20.7001Z" fill="#F5D18D"/>
<path d="M267 23.0001C267 27.2527 96.7525 36.5001 92.4999 36.5001C88.2473 36.5001 -6.10352e-05 24.9527 -6.10352e-05 20.7001C-6.10352e-05 16.4475 118.247 0.500061 122.5 0.500061C126.753 0.500061 267 18.7475 267 23.0001Z" fill="#F5D18D"/>
<path d="M269.564 179.051C269.564 183.201 95.6048 188.81 91.4545 188.81C87.3042 188.81 91.4545 24.8048 91.4545 20.6545C91.4545 16.5042 260.046 20.6546 264.197 20.6546C268.347 20.6546 269.564 174.9 269.564 179.051Z" fill="#F5D18D"/>
</svg>
